<?xml version="1.0" encoding="UTF-8" standalone="no"?>
<svg width="152px" height="36px" viewBox="0 0 152 36" version="1.1" xmlns="http://www.w3.org/2000/svg" xmlns:xlink="http://www.w3.org/1999/xlink">
    <!-- Generator: Sketch 42 (36781) - http://www.bohemiancoding.com/sketch -->
    <title>Group 10</title>
    <desc>Created with Sketch.</desc>
    <defs></defs>
    <g id="Drafts-&amp;-Experiments" stroke="none" stroke-width="1" fill="none" fill-rule="evenodd">
        <g id="Artboard" transform="translate(-2894.000000, -362.000000)">
            <g id="Group-10" transform="translate(2894.000000, 362.000000)">
                <g id="Page-1" transform="translate(50.000000, 0.000000)">
                    <g id="Group" transform="translate(0.441898, 0.000000)"></g>
                </g>
                <path d="M89.936,6.536 C90.096,6.248 90.16,6.056 90.16,5.896 C90.16,5.672 90,5.576 89.68,5.576 C88.784,5.576 88.4,5.608 88.112,6.12 L82.544,15.912 L76.976,6.12 C76.688,5.608 76.304,5.576 75.376,5.576 C75.088,5.576 74.896,5.672 74.896,5.896 C74.896,6.056 74.992,6.248 75.152,6.536 L81.328,17.48 L75.12,28.424 C74.96,28.712 74.896,28.904 74.896,29.064 C74.896,29.288 75.088,29.384 75.376,29.384 C76.112,29.384 76.656,29.352 76.944,28.872 L82.544,18.984 L88.144,28.872 C88.4,29.352 88.976,29.384 89.712,29.384 C90,29.384 90.192,29.288 90.192,29.064 C90.192,28.904 90.128,28.712 89.968,28.424 L83.76,17.48 L89.936,6.536 Z M92.176,24.072 L92.176,17.064 C92.176,13.224 94.096,11.688 98.448,11.688 L98.512,11.688 C102.896,11.688 104.816,13.224 104.816,17.064 L104.816,24.072 C104.816,27.912 102.896,29.384 98.512,29.384 L98.416,29.384 C94.064,29.384 92.176,27.912 92.176,24.072 Z M98.384,27.816 L98.544,27.816 C101.872,27.816 103.056,26.568 103.056,24.072 L103.056,17.064 C103.056,14.504 101.872,13.256 98.544,13.256 L98.448,13.256 C95.12,13.256 93.936,14.504 93.936,17.064 L93.936,24.072 C93.936,26.568 95.088,27.816 98.384,27.816 Z M110.704,34.376 C110.704,34.952 110.448,35.08 110.128,35.08 C109.616,35.08 108.912,34.92 108.912,34.696 L108.912,14.664 C108.912,12.776 114.128,11.688 116.304,11.688 C119.088,11.688 120.688,12.84 120.688,17.096 L120.688,23.88 C120.688,26.984 120.176,29.384 116.304,29.384 C114.288,29.384 111.856,28.552 110.704,27.784 L110.704,34.376 Z M110.704,25.896 C110.928,26.536 113.68,27.752 116.016,27.752 C118.096,27.752 118.896,26.76 118.896,23.912 L118.896,17.384 C118.896,14.152 117.84,13.288 116.048,13.288 C114.128,13.288 110.864,14.184 110.704,15.048 L110.704,25.896 Z M135.024,27.048 C135.024,27.24 132.336,27.848 130.256,27.848 C127.184,27.848 126.512,26.472 126.512,23.816 L126.512,12.392 C126.512,11.816 126.256,11.688 125.904,11.688 C125.392,11.688 124.72,11.848 124.72,12.072 L124.72,23.912 C124.72,27.432 125.744,29.384 130.256,29.384 C132.656,29.384 135.024,28.84 136.176,28.392 C136.56,28.264 136.784,28.2 136.784,27.592 L136.784,12.392 C136.784,11.816 136.528,11.688 136.208,11.688 C135.696,11.688 135.024,11.848 135.024,12.072 L135.024,27.048 Z M140.784,27.528 L140.656,27.528 C140.432,27.528 140.176,27.752 140.176,28.68 C140.176,29.352 144.4,29.384 145.328,29.384 C148.816,29.384 151.12,28.36 151.12,25.064 C151.12,19.112 142.48,19.592 142.48,15.624 C142.48,13.832 144.08,13.256 146.512,13.256 C147.92,13.256 149.264,13.544 150.384,13.544 C150.64,13.544 150.864,13.192 150.864,12.424 C150.864,12.168 150.8,12.008 150.384,11.944 C149.36,11.784 148.016,11.688 146.16,11.688 C143.28,11.688 140.72,12.392 140.72,15.592 C140.72,21.192 149.36,20.552 149.36,25.128 C149.36,27.112 147.856,27.816 145.168,27.816 C143.6,27.816 142.256,27.72 140.784,27.528 Z" id="Xopus" fill="#5D6E7F"></path>
                <g id="SDL-Logo-Master-Copy-7">
                    <g id="SDL" transform="translate(0.000000, 5.844156)" fill="#5D6E7F">
                        <path d="M33.0148321,14.4121228 C33.0148321,17.4984562 31.3004793,18.4029068 28.7361581,18.4029068 L24.9037027,18.4029068 C24.8735068,18.4029068 24.8673701,18.3833632 24.8673701,18.3473875 L24.8673701,5.63276753 C24.8673701,5.6106959 24.8743834,5.60427859 24.900878,5.60427859 L28.8021022,5.60427859 C31.2410614,5.60427859 33.0148321,6.77446389 33.0148321,9.22217846 L33.0148321,14.4121228 Z M29.26751,0.437669844 L19.8894154,0.437669844 C19.0178228,0.437669844 19.0129525,1.21980284 19.0129525,1.21980284 L19.0129525,22.8851978 C19.0129525,23.5649457 19.6076187,23.6307717 20.3345627,23.6307717 L28.6591096,23.6307717 C35.4404466,23.6307717 39.0315289,21.2459661 39.0315289,14.936008 L39.0315289,8.86300401 C39.0315289,2.00981161 34.2088399,0.437669844 29.26751,0.437669844 L29.26751,0.437669844 Z M57.8372005,21.0021086 C57.7762241,22.3547009 57.4857582,23.6307717 57.1098668,23.6307717 L44.7663314,23.6307717 C42.7982348,23.6307717 42.4391948,23.192256 42.4391948,22.8206359 L42.4391948,1.10555541 C42.4391948,0.434363961 43.9337014,0.200326901 45.6171764,0.114957338 C47.345361,0.0270597468 48.289911,0.180005445 48.289911,0.999475467 L48.289911,18.2371265 C48.289911,18.4095186 48.412156,18.4404383 48.4920293,18.4404383 L56.972816,18.4404383 C57.7785619,18.4404383 57.9176582,19.2175153 57.8372005,21.0021086 L57.8372005,21.0021086 Z M6.85098264,24.0332143 C3.11106342,24.0332143 0.940264103,23.5714602 0.361572605,23.1716429 C0.0143187431,22.9315774 -0.142992613,22.7271961 0.163837587,20.6415729 C0.320661911,19.5758146 0.928867553,18.1612857 1.79929126,18.4841927 C2.73575651,18.8315048 10.4059271,20.2756895 10.4059271,17.2743368 C10.4059271,14.002874 0.530475324,15.1433064 0.530475324,6.72993171 C0.530475324,2.96073909 2.16826675,0.0721753247 9.28146745,0.0721753247 C13.4946844,0.0721753247 14.9027915,0.804817305 15.2867676,0.967000029 C15.7144792,1.1476568 15.8986747,1.70897627 15.6187287,3.53537931 C15.4141752,4.86998367 14.6889845,5.66203431 14.1062019,5.48050245 C12.5315298,4.98987054 6.27940181,4.23447631 6.27940181,6.61140608 C6.27940181,9.88491074 16.1502755,8.78891334 16.1502755,17.3615537 C16.1502755,21.2756218 14.4139087,24.0332143 6.85098264,24.0332143 L6.85098264,24.0332143 Z" id="Fill-1"></path>
                    </g>
                    <g id="Asterisk" transform="translate(52.207792, 0.000000)" fill="#25BD59">
                        <path d="M7.36183442,8.46353571 L7.91595779,7.8030487 L8.47017857,7.14265909 C8.55452922,7.04204221 8.67238636,6.98515909 8.79433442,6.97454221 C8.91618506,6.96382792 9.04212662,6.99937987 9.1425487,7.08382792 L11.7693994,9.2878539 L14.3960552,11.4918799 C14.4965747,11.5762305 14.5534578,11.6940877 14.5640747,11.8160357 C14.574789,11.9378864 14.539237,12.0638279 14.454789,12.1643474 L13.9006656,12.8248344 L13.3464448,13.485224 C13.2620942,13.5858409 13.1441396,13.642724 13.022289,13.6534383 C12.9004383,13.6640552 12.7744968,13.6285032 12.6739773,13.5441526 L10.047224,11.3400292 L7.42066558,9.13600325 C7.3200487,9.0516526 7.26306818,8.93379545 7.2525487,8.81194481 C7.24193182,8.68999675 7.27748377,8.56405519 7.36183442,8.46353571" id="Fill-4"></path>
                        <path d="M4.18997727,14.7236981 L4.98936039,15.0466851 L5.78874351,15.3696721 C5.91039935,15.418763 6.04130844,15.4136981 6.15380844,15.3658734 C6.26640584,15.3181461 6.36098377,15.2275617 6.41026948,15.1059058 L7.69462013,11.9266851 L8.97906818,8.74746429 C9.0283539,8.62580844 9.02319156,8.49499675 8.97546429,8.38239935 C8.92763961,8.26970455 8.8371526,8.17522403 8.71539935,8.12603571 L7.91601623,7.8031461 L7.11663312,7.48015909 C6.99497727,7.43097078 6.86406818,7.43603571 6.75156818,7.48386039 C6.63897078,7.53168506 6.54449026,7.62217208 6.49530195,7.74392532 L5.21065909,10.9231461 L3.92630844,14.1022695 C3.87702273,14.2240227 3.88218506,14.354737 3.92991234,14.4674318 C3.97773701,14.5800292 4.06822403,14.6745097 4.18997727,14.7236981" id="Fill-6"></path>
                        <path d="M8.75249026,7.59451948 L7.91589935,7.80305844 L7.07940584,8.01169481 C6.95210065,8.04344805 6.82323701,8.02016883 6.71833442,7.95714935 C6.61352922,7.89412987 6.53249026,7.79137013 6.50083442,7.66396753 L5.67125649,4.33698701 L4.84177597,1.00990909 C4.80992532,0.882603896 4.83330195,0.75374026 4.89622403,0.648935065 C4.95934091,0.544032468 5.06200325,0.463090909 5.18940584,0.431337662 L6.02609416,0.222701299 L6.86258766,0.0141623377 C6.98989286,-0.0175909091 7.11875649,0.00559090909 7.22365909,0.0686103896 C7.32836688,0.13162987 7.40940584,0.234487013 7.44115909,0.361792208 L8.27073701,3.68887013 L9.10021753,7.01585065 C9.13197078,7.14325325 9.10869156,7.27201948 9.04576948,7.37692208 C8.9826526,7.48182468 8.87999026,7.56276623 8.75249026,7.59451948" id="Fill-8"></path>
                        <path d="M14.9981494,4.39431818 L14.5413312,3.66321429 L14.0759416,2.91847403 C14.0063961,2.80714286 13.8975974,2.73438312 13.778474,2.70681818 C13.6591558,2.67935065 13.5296104,2.69698052 13.4181818,2.76662338 L10.5104221,4.58357143 L7.60246753,6.40061688 C7.49123377,6.47016234 7.41847403,6.57896104 7.39090909,6.69818182 C7.36334416,6.8174026 7.38107143,6.94704545 7.45071429,7.05837662 L7.91600649,7.80311688 L8.37282468,8.53431818 C8.44237013,8.64555195 8.55126623,8.71831169 8.67038961,8.74587662 C8.78970779,8.77334416 8.91935065,8.75571429 9.03058442,8.68616883 L11.9384416,6.86912338 L14.8462987,5.05207792 C14.9576299,4.98253247 15.0303896,4.87373377 15.0578571,4.75451299 C15.0854221,4.63529221 15.0676948,4.50564935 14.9981494,4.39431818" id="Fill-10"></path>
                        <path d="M7.97612338,6.94304221 L7.91602597,7.80310714 L7.85583117,8.66317208 C7.84667532,8.79408117 7.78482468,8.90940584 7.69248701,8.98966558 C7.60014935,9.06992532 7.47732468,9.11521753 7.34631818,9.10606169 L3.92583117,8.86684091 L0.505344156,8.62762013 C0.374337662,8.61846429 0.259012987,8.55661364 0.178850649,8.46427597 C0.0984935065,8.37193831 0.0532987013,8.24911364 0.0624545455,8.11820455 L0.122551948,7.25813961 L0.182746753,6.39807468 C0.191902597,6.26716558 0.253753247,6.15184091 0.346090909,6.07158117 C0.438428571,5.99132143 0.561253247,5.94602922 0.692162338,5.95518506 L4.11274675,6.19440584 L7.53323377,6.43352922 C7.66414286,6.44268506 7.77937013,6.50463312 7.85972727,6.59697078 C7.93998701,6.68930844 7.98527922,6.81213312 7.97612338,6.94304221" id="Fill-12"></path>
                    </g>
                </g>
            </g>
        </g>
    </g>
</svg>