<svg width="47" height="31" viewBox="0 0 47 31" fill="none" xmlns="http://www.w3.org/2000/svg">
<path fill-rule="evenodd" clip-rule="evenodd" d="M0.0415039 0.460938H46.3977V30.7486H0.0415039V0.460938ZM0.780581 1.32396H45.6573V29.8856H0.780581V1.32396Z" fill="#131418"/>
<path d="M7.64361 24.0514C7.47922 24.4213 6.98607 25.4076 5.7121 25.4076C4.64361 25.4076 3.61621 24.709 3.61621 23.024C3.61621 22.0377 4.19155 20.7227 5.7121 20.7227C6.86279 20.7227 7.31484 21.4624 7.52032 22.0788L6.6984 22.2843C6.65731 21.7911 6.24635 21.4624 5.7532 21.4624C5.01347 21.4624 4.52032 21.9966 4.52032 23.024C4.52032 23.6405 4.7669 24.5857 5.7532 24.5857C6.32854 24.5857 6.6984 24.1336 6.82169 23.6816L7.64361 24.0514Z" fill="#131418"/>
<path d="M10.3148 20.7227C11.671 20.7227 12.4518 21.8322 12.4518 23.024C12.4518 24.0514 11.9176 25.4076 10.3148 25.4076C8.99977 25.4076 8.17785 24.3391 8.17785 23.0651C8.17785 21.7501 8.99977 20.7227 10.3148 20.7227ZM10.3148 24.6268C10.9724 24.6268 11.5888 24.1336 11.5888 23.1062C11.5888 22.3254 11.1779 21.5035 10.2737 21.5035C9.53402 21.5035 8.99977 22.0788 8.99977 23.0651C9.04087 23.7227 9.36963 24.6268 10.3148 24.6268Z" fill="#131418"/>
<path d="M16.5203 25.2843C16.5203 25.161 16.6025 21.6268 16.6025 21.6268L15.6573 25.2843H14.9176L13.9724 21.6268C13.9724 21.6268 14.0546 25.1199 14.0546 25.2843H13.2326V20.8459H14.4244L15.2874 24.1336L16.1505 20.8459H17.3422V25.2843H16.5203Z" fill="#131418"/>
<path d="M20.3422 20.8459C21.2463 20.8459 21.9039 21.4213 21.9039 22.3254C21.9039 23.1473 21.4518 23.7638 20.26 23.7638H19.4381V25.2843H18.6162V20.8459H20.3422ZM19.4381 23.1062H20.1779C20.7532 23.1062 21.082 22.8185 21.082 22.3254C21.082 21.6268 20.5066 21.5857 20.0957 21.5857H19.4381V23.1062Z" fill="#131418"/>
<path d="M25.0272 25.2843L24.7806 24.4213H23.0957L22.8491 25.2843H21.945L23.4655 20.8459H24.3696L25.8902 25.2843H25.0272ZM23.9176 21.6268L23.3011 23.6816H24.534L23.9176 21.6268Z" fill="#131418"/>
<path d="M27.6162 21.5857V25.2843H26.7943V21.5857H25.6025V20.8459H28.8902V21.5857H27.6162Z" fill="#131418"/>
<path d="M29.5066 25.2843V20.8459H30.3285V25.2843H29.5066Z" fill="#131418"/>
<path d="M33.5751 20.8459C34.5203 20.8459 34.9313 21.3802 34.9313 21.9555C34.9313 22.3254 34.7258 22.8185 34.1916 22.8596C34.6025 22.9418 35.1368 23.2706 35.1368 24.0514C35.1368 24.6679 34.7669 25.3254 33.6573 25.3254H31.6025V20.8459H33.5751ZM32.4244 22.6131H33.2463C33.6162 22.6131 34.0683 22.4898 34.0683 22.0377C34.0683 21.5857 33.6162 21.5035 33.2874 21.5035H32.4244V22.6131ZM32.4244 24.5857H33.534C34.1094 24.5857 34.3148 24.298 34.3148 23.9692C34.3148 23.3528 33.6984 23.2706 33.3696 23.2706H32.4244V24.5857Z" fill="#131418"/>
<path d="M36.2052 25.2843V20.8459H37.0272V24.5446H38.7943V25.2843H36.2052Z" fill="#131418"/>
<path d="M39.3285 25.2843V20.8459H42.4929V21.5857H40.1505V22.6131H42.2874V23.3117H40.1505V24.5035H42.6573V25.2843H39.3285Z" fill="#131418"/>
<path fill-rule="evenodd" clip-rule="evenodd" d="M27.7812 7.81641H42.658L42.6991 10.4465H42.0004C41.7538 9.54243 41.0963 8.926 39.9867 8.63832C39.3703 8.47394 38.4251 8.35065 37.1922 8.35065V14.926C37.1922 15.378 37.3566 15.5835 37.6443 15.7068C37.973 15.8712 38.6306 15.8712 39.6169 15.8712V16.4465H30.8634V15.8301C31.8086 15.8301 32.4662 15.7479 32.7949 15.6246C33.1237 15.4602 33.2881 15.337 33.2881 14.8849V8.30956C32.0963 8.30956 31.1511 8.43284 30.5347 8.59723C29.3429 8.926 28.6854 9.54243 28.521 10.4054C28.3155 10.4054 27.8223 10.4054 27.8223 10.4054L27.7812 7.81641Z" fill="#131418"/>
<path fill-rule="evenodd" clip-rule="evenodd" d="M16.1101 12.2558L17.4663 12.4202L17.5074 12.4613C18.0416 13.5709 18.9046 14.4339 20.0964 14.9271C21.2882 15.4613 22.6854 15.7079 24.2471 15.7079C25.7676 15.7079 26.8361 15.5435 27.4526 15.1736C28.069 14.8449 28.3567 14.475 28.3567 14.1051C28.3567 13.6942 28.0279 13.3243 27.4115 13.0778C26.9594 12.8723 26.0553 12.6257 24.7402 12.338L22.5622 11.8449C20.4252 11.3517 18.8635 10.8586 18.0005 10.3654C17.0142 9.87227 16.5622 9.25583 16.5622 8.51611C16.5622 7.73529 17.1786 6.99556 18.3704 6.29693C19.5622 5.63939 21.3704 5.31063 23.795 5.31063C25.0279 5.31063 26.2197 5.39282 27.3704 5.5572C28.1101 5.68049 29.1375 5.80378 29.343 5.80378C29.795 5.80378 29.9594 5.72159 30.0416 5.68049C30.1649 5.5983 30.2882 5.47501 30.3704 5.31063L30.4115 5.26953H31.5622V8.84487H30.4937L30.4526 8.80378C30.0005 8.02296 29.2197 7.36542 28.1101 6.83118C27.0005 6.25583 25.6444 6.00926 24.0827 6.00926C22.9731 6.00926 22.069 6.13255 21.4526 6.42022C20.8361 6.66679 20.5485 6.99556 20.5485 7.36542C20.5485 7.81748 20.8361 8.14624 21.4115 8.39282C22.0279 8.63939 23.3841 9.00926 25.4389 9.46131L27.9457 10.0367C29.0553 10.2832 29.9594 10.5709 30.617 10.8997C31.8909 11.5161 32.5485 12.2558 32.5485 13.1188C32.5485 13.9408 31.8498 14.7216 30.4937 15.4202C29.1786 16.1188 27.0005 16.4887 24.0827 16.4887C23.4252 16.4887 22.7265 16.4476 22.0279 16.4065C21.3293 16.3654 20.6307 16.2421 19.9731 16.1599L19.3156 16.0367C19.1512 16.0367 19.0279 15.9956 18.9046 15.9956C18.7813 15.9956 18.6581 15.9545 18.5348 15.9545C18.206 15.9545 18.0005 15.9956 17.8772 16.0778C17.7539 16.1599 17.6718 16.2832 17.5485 16.4476L17.5074 16.4887H16.1923V12.2558H16.1101Z" fill="#131418"/>
<path d="M31.397 5.39298V8.76284H30.4518C29.9997 7.98202 29.2189 7.32449 28.1093 6.74914C26.9997 6.1738 25.6435 5.88613 24.0408 5.88613C22.8901 5.88613 22.0271 6.00942 21.3696 6.29709C20.712 6.58476 20.3833 6.91353 20.3833 7.32449C20.3833 7.81764 20.712 8.1875 21.3285 8.43408C21.9449 8.68065 23.3011 9.05051 25.397 9.50257L27.9038 10.0779C29.0134 10.3245 29.9175 10.6122 30.575 10.9409C31.8079 11.5163 32.4244 12.256 32.4244 13.0779C32.4244 13.8587 31.7668 14.5985 30.4107 15.2971C29.0956 15.9957 26.9586 16.3245 24.0408 16.3245C23.3833 16.3245 22.6846 16.2834 21.986 16.2423C21.2874 16.2012 20.6298 16.119 19.9312 15.9957L19.2737 15.8724C19.1093 15.8724 18.986 15.8313 18.8216 15.8313C18.6983 15.8313 18.575 15.7902 18.4518 15.7902C18.123 15.7902 17.8764 15.8313 17.7531 15.9135C17.6298 15.9957 17.5066 16.119 17.4244 16.3245H16.2326V12.3382L17.4244 12.5026C17.9586 13.6533 18.8216 14.5163 20.0545 15.0094C21.2874 15.5437 22.6435 15.7902 24.2052 15.7902C25.7257 15.7902 26.7942 15.6259 27.4518 15.256C28.1093 14.8861 28.397 14.5163 28.397 14.1053C28.397 13.6533 28.0682 13.2834 27.3696 12.9546C26.9175 12.7491 26.0134 12.5026 24.6983 12.2149L22.5202 11.7217C20.3833 11.2286 18.8627 10.7354 17.9586 10.2423C17.0956 9.74914 16.6435 9.1738 16.6435 8.43408C16.6435 7.69435 17.2189 6.95462 18.3696 6.29709C19.5613 5.63955 21.3285 5.31079 23.7531 5.31079C24.986 5.31079 26.1778 5.39298 27.2874 5.55736C28.4381 5.72175 29.0956 5.80394 29.26 5.80394C29.6298 5.80394 29.8764 5.76284 30.0408 5.68065C30.1641 5.59846 30.2874 5.43408 30.3696 5.26969H31.397V5.39298ZM31.5613 5.1875H31.3559H30.3696H30.2463L30.2052 5.26969C30.123 5.39298 30.0408 5.51627 29.9175 5.59846C29.8764 5.63955 29.712 5.72175 29.26 5.72175C29.0545 5.72175 27.7394 5.51627 27.3285 5.47517C26.1778 5.31079 24.986 5.2286 23.7531 5.2286C21.3285 5.2286 19.4792 5.55736 18.2874 6.25599C17.0545 6.95462 16.4381 7.69435 16.4381 8.55736C16.4381 9.33818 16.9312 9.99572 17.8764 10.53C18.7805 11.0231 20.3011 11.5163 22.4792 12.0094L24.6572 12.5026C25.9723 12.7902 26.8764 13.0368 27.3285 13.2423C27.9038 13.4889 28.2326 13.8176 28.2326 14.1875C28.2326 14.5163 27.9449 14.845 27.3696 15.1738C26.7531 15.5026 25.6846 15.667 24.2052 15.667C22.6846 15.667 21.2874 15.4204 20.0956 14.8861C18.9449 14.393 18.0819 13.5711 17.5887 12.4615L17.5476 12.3793H17.4244L16.2326 12.2149L16.0271 12.1327V12.3382V16.3245V16.53H16.2326H17.4244H17.5476L17.5887 16.4478C17.6709 16.2834 17.7531 16.2012 17.8764 16.119C17.9175 16.0779 18.0819 15.9957 18.4929 15.9957C18.575 15.9957 18.6983 15.9957 18.8216 16.0368C18.9449 16.0368 19.1093 16.0779 19.2737 16.0779L19.9312 16.2012C20.5887 16.3245 21.2874 16.4067 21.986 16.4478C22.6846 16.4889 23.3833 16.53 24.0408 16.53C26.9997 16.53 29.1778 16.1601 30.5339 15.4615C31.9312 14.7217 32.6298 13.9409 32.6298 13.0779C32.6298 12.1738 31.9723 11.393 30.6572 10.7765C29.9997 10.4478 29.0545 10.1601 27.9449 9.91353L25.4381 9.33819C23.3833 8.88613 22.0271 8.51627 21.4107 8.26969C20.8764 8.06421 20.5887 7.73545 20.5887 7.36558C20.5887 7.03681 20.8764 6.74914 21.4518 6.50257C22.0682 6.2149 22.9723 6.09161 24.0819 6.09161C25.6435 6.09161 26.9997 6.37928 28.0682 6.91353C29.1778 7.44777 29.9175 8.10531 30.3696 8.84503L30.4107 8.92723H30.5339H31.4791H31.6846V8.72175V5.35188V5.1875H31.5613Z" fill="#E9E9E9"/>
<path fill-rule="evenodd" clip-rule="evenodd" d="M9.65813 16.8158L3.45265 9.54179C3.20608 9.25412 2.9595 9.04864 2.71293 8.92535C2.46635 8.80207 1.76772 8.71987 1.15128 8.71987H1.06909V8.14453H9.69923V8.76097H9.61704C8.75402 8.80207 8.21978 8.84316 7.93211 8.88426C7.64443 8.92535 7.64443 9.04864 7.64443 9.17193C7.64443 9.21302 7.64443 9.29522 7.64443 9.33631C7.64443 9.37741 7.68553 9.4185 7.72663 9.4596L11.3431 13.898H11.3842L14.5074 9.82946C14.5896 9.74727 14.6307 9.66508 14.6718 9.58289C14.754 9.4596 14.7951 9.33631 14.7951 9.25412C14.7951 9.13083 14.754 8.96645 14.4664 8.92535C14.2198 8.88426 13.6444 8.84316 12.8225 8.80207H12.7403V8.18563H18.4116V8.76097H18.3294C17.7129 8.80207 16.9321 8.88426 16.6855 9.00755C16.3979 9.13083 16.1513 9.37741 15.8636 9.70617L10.3979 16.8158H9.65813Z" fill="#131418"/>
<path d="M18.37 8.18782V8.59878C17.7946 8.63988 16.9727 8.72207 16.685 8.84536C16.3974 8.96864 16.1097 9.21522 15.822 9.58508L10.3563 16.6947H9.69874L3.49326 9.46179C3.24668 9.17412 3.00011 8.96864 2.71244 8.84536C2.46586 8.72207 1.68504 8.63988 1.1097 8.59878V8.18782H9.53435V8.59878C8.67134 8.63988 8.096 8.68097 7.84942 8.72207C7.60285 8.76316 7.47956 8.88645 7.47956 9.09193C7.47956 9.13303 7.47956 9.21522 7.52066 9.25631C7.56175 9.29741 7.60285 9.3796 7.64394 9.4207L11.3426 13.9001H11.4659L14.6302 9.83166C14.7124 9.74946 14.7535 9.66727 14.8357 9.54399C14.9179 9.3796 14.959 9.25631 14.959 9.17412C14.959 8.92755 14.8357 8.80426 14.5481 8.76316C14.3015 8.72207 13.7261 8.63988 12.9042 8.63988V8.22892H18.37V8.18782ZM18.5755 8.02344H18.37H12.9042H12.6987V8.22892V8.63988V8.84536H12.9042C13.7261 8.88645 14.2604 8.92755 14.507 8.96864C14.7535 9.00974 14.7535 9.13303 14.7535 9.21522C14.7535 9.25631 14.7535 9.33851 14.6302 9.50289C14.5891 9.58508 14.507 9.66727 14.4659 9.74946L11.3837 13.7358L7.80833 9.3796C7.76723 9.33851 7.72613 9.29741 7.72613 9.25631C7.72613 9.21522 7.72613 9.17412 7.72613 9.13303C7.72613 9.09193 7.72613 9.00974 7.93161 8.96864C8.17819 8.92755 8.71244 8.88645 9.57545 8.84536H9.78093V8.63988V8.22892V8.02344H9.57545H1.15079H0.945312V8.22892V8.63988V8.80426H1.1097C1.80833 8.84536 2.42476 8.92755 2.63024 9.00974C2.87682 9.13303 3.12339 9.33851 3.32887 9.58508L9.53435 16.818L9.57545 16.9001H9.65764H10.3563H10.4385L10.4796 16.818L15.9864 9.70837C16.233 9.3796 16.5207 9.17412 16.7672 9.05083C16.9727 8.92755 17.6302 8.84536 18.37 8.80426H18.5344V8.63988V8.22892V8.02344H18.5755Z" fill="#E9E9E9"/>
<path d="M42.8632 5.968C41.8769 5.968 41.0549 5.14608 41.0549 4.15978C41.0549 3.17348 41.8769 2.35156 42.8632 2.35156C43.8495 2.35156 44.6714 3.17348 44.6714 4.11869C44.6714 5.18718 43.8905 5.968 42.8632 5.968ZM42.8632 2.51595C41.959 2.51595 41.2193 3.25567 41.2193 4.15978C41.2193 5.06389 41.9179 5.80362 42.8632 5.80362C43.7673 5.80362 44.507 5.06389 44.507 4.20088C44.507 3.25567 43.8084 2.51595 42.8632 2.51595ZM42.8221 3.0091C43.3974 3.0091 43.644 3.21458 43.644 3.66663C43.644 4.03649 43.4796 4.20088 43.1508 4.32417L43.6851 5.31047H43.2741L42.781 4.36526H42.4933V5.31047H42.1234V3.0091H42.8221ZM42.4933 4.03649H42.781C43.1097 4.03649 43.233 3.91321 43.233 3.66663C43.233 3.42006 43.0686 3.29677 42.7399 3.29677H42.4933V4.03649Z" fill="#131418"/>
</svg>
